<svg xmlns="http://www.w3.org/2000/svg" width="14" height="14" viewBox="0 0 14 14" fill="none">
  <path d="M13.6215 6.515L8.71251 5.28749L7.485 0.37845C7.45791 0.270336 7.39546 0.174375 7.30759 0.105808C7.21972 0.037241 7.11146 0 7 0C6.88854 0 6.78028 0.037241 6.69241 0.105808C6.60454 0.174375 6.54209 0.270336 6.515 0.37845L5.28749 5.28749L0.37845 6.515C0.270336 6.54209 0.174375 6.60454 0.105808 6.69241C0.037241 6.78028 0 6.88854 0 7C0 7.11146 0.037241 7.21972 0.105808 7.30759C0.174375 7.39546 0.270336 7.45791 0.37845 7.485L5.28749 8.71251L6.515 13.6215C6.54209 13.7297 6.60454 13.8256 6.69241 13.8942C6.78028 13.9628 6.88854 14 7 14C7.11146 14 7.21972 13.9628 7.30759 13.8942C7.39546 13.8256 7.45791 13.7297 7.485 13.6215L8.71251 8.71251L13.6215 7.485C13.7297 7.45791 13.8256 7.39546 13.8942 7.30759C13.9628 7.21972 14 7.11146 14 7C14 6.88854 13.9628 6.78028 13.8942 6.69241C13.8256 6.60454 13.7297 6.54209 13.6215 6.515ZM7.01 7.5C6.87739 7.50067 6.74995 7.44862 6.65571 7.35532C6.56147 7.26202 6.50816 7.13511 6.5075 7.0025C6.50683 6.86989 6.55888 6.74245 6.65218 6.64821C6.74548 6.55397 6.87239 6.50066 7.005 6.5H7.01C7.14261 6.5 7.26979 6.55268 7.36356 6.64644C7.45732 6.74021 7.51 6.86739 7.51 7C7.51 7.13261 7.45732 7.25979 7.36356 7.35356C7.26979 7.44733 7.14261 7.5 7.01 7.5ZM2.42897 3.10847C2.37648 3.01353 2.35629 2.9041 2.37145 2.79669C2.3866 2.68927 2.43628 2.5897 2.51299 2.51299C2.5897 2.43628 2.68927 2.3866 2.79669 2.37145C2.9041 2.35629 3.01353 2.37648 3.10847 2.42897L4.74448 3.33697L4.46298 4.46298L3.33697 4.74448L2.42897 3.10847ZM9.25552 3.33697L10.8915 2.42897C10.9865 2.37648 11.0959 2.35629 11.2033 2.37145C11.3107 2.3866 11.4103 2.43628 11.487 2.51299C11.5637 2.5897 11.6134 2.68927 11.6286 2.79669C11.6437 2.9041 11.6235 3.01353 11.571 3.10847L10.663 4.74448L9.53702 4.46298L9.25552 3.33697ZM11.571 10.8915C11.6235 10.9865 11.6437 11.0959 11.6286 11.2033C11.6134 11.3107 11.5637 11.4103 11.487 11.487C11.4103 11.5637 11.3107 11.6134 11.2033 11.6286C11.0959 11.6437 10.9865 11.6235 10.8915 11.571L9.25552 10.663L9.53702 9.53702L10.663 9.25552L11.571 10.8915ZM4.74448 10.663L3.10847 11.571C3.01353 11.6235 2.9041 11.6437 2.79669 11.6286C2.68927 11.6134 2.5897 11.5637 2.51299 11.487C2.43628 11.4103 2.3866 11.3107 2.37145 11.2033C2.35629 11.0959 2.37648 10.9865 2.42897 10.8915L3.33697 9.25552L4.46298 9.53702L4.74448 10.663Z" fill="#D548EC"/>
</svg>
